<?xml version="1.0" encoding="utf-8"?>
<!-- Generator: Adobe Illustrator 24.3.0, SVG Export Plug-In . SVG Version: 6.00 Build 0)  -->
<svg version="1.1" id="圖層_1" xmlns="http://www.w3.org/2000/svg" xmlns:xlink="http://www.w3.org/1999/xlink" x="0px" y="0px"
	 viewBox="0 0 297.64 297.64" style="enable-background:new 0 0 297.64 297.64;" xml:space="preserve">
<style type="text/css">
	.st0{fill:#040000;}
	.st1{fill:#FFFFFF;}
</style>
<g>
	<g>
		<polygon class="st0" points="259.29,85.04 148.82,21.26 38.35,85.04 38.35,212.6 148.82,276.38 259.29,212.6 		"/>
		<path class="st0" d="M148.82,280.38c-0.69,0-1.38-0.18-2-0.54L36.35,216.06c-1.24-0.71-2-2.04-2-3.46V85.04
			c0-1.43,0.76-2.75,2-3.46L146.82,17.8c1.24-0.71,2.76-0.71,4,0l110.47,63.78c1.24,0.71,2,2.03,2,3.46V212.6
			c0,1.43-0.76,2.75-2,3.46l-110.47,63.78C150.2,280.2,149.51,280.38,148.82,280.38z M42.35,210.29l106.47,61.47l106.47-61.47V87.35
			L148.82,25.88L42.35,87.35V210.29z"/>
	</g>
	<g>
		<path class="st1" d="M148.82,61.27c-2.21,0-4-1.79-4-4V21.26c0-2.21,1.79-4,4-4s4,1.79,4,4v36.01
			C152.82,59.48,151.03,61.27,148.82,61.27z"/>
	</g>
	<g>
		<path class="st1" d="M38.35,89.04c-1.79,0-3.42-1.21-3.88-3.03c-0.54-2.14,0.76-4.32,2.9-4.85L147.84,53.4
			c2.14-0.54,4.32,0.76,4.85,2.9c0.54,2.14-0.76,4.32-2.9,4.85L39.32,88.92C39,89,38.67,89.04,38.35,89.04z"/>
	</g>
	<g>
		<path class="st1" d="M38.35,216.6c-1.45,0-2.85-0.79-3.56-2.17c-1.01-1.96-0.25-4.38,1.72-5.39l29.63-15.31
			c1.96-1.02,4.38-0.25,5.39,1.72c1.01,1.96,0.25,4.38-1.72,5.39l-29.63,15.31C39.6,216.46,38.97,216.6,38.35,216.6z"/>
	</g>
	<g>
		<path class="st1" d="M148.82,280.38c-1.01,0-2.02-0.38-2.8-1.14l-80.83-79.09c-1.58-1.54-1.61-4.08-0.06-5.66
			c1.54-1.58,4.08-1.61,5.66-0.06l80.84,79.09c1.58,1.54,1.61,4.08,0.06,5.66C150.89,279.98,149.86,280.38,148.82,280.38z"/>
	</g>
	<g>
		<path class="st1" d="M67.98,201.29c-1.77,0-3.39-1.19-3.87-2.98L34.48,86.06c-0.56-2.14,0.71-4.32,2.85-4.89
			c2.14-0.56,4.32,0.71,4.89,2.85l29.63,112.24c0.56,2.14-0.71,4.33-2.85,4.89C68.66,201.24,68.32,201.29,67.98,201.29z"/>
	</g>
	<g>
		<path class="st1" d="M259.29,89.04c-0.32,0-0.65-0.04-0.98-0.12L147.84,61.15c-2.14-0.54-3.44-2.71-2.9-4.85
			c0.54-2.14,2.71-3.44,4.85-2.9l110.47,27.76c2.14,0.54,3.44,2.71,2.9,4.85C262.71,87.83,261.08,89.04,259.29,89.04z"/>
	</g>
	<g>
		<path class="st1" d="M259.29,216.6c-0.62,0-1.25-0.14-1.83-0.45l-29.63-15.31c-1.96-1.01-2.73-3.43-1.72-5.39
			c1.01-1.96,3.43-2.73,5.39-1.72l29.63,15.31c1.96,1.01,2.73,3.43,1.72,5.39C262.13,215.81,260.73,216.6,259.29,216.6z"/>
	</g>
	<g>
		<path class="st1" d="M148.82,280.38c-1.04,0-2.08-0.4-2.86-1.2c-1.54-1.58-1.52-4.11,0.06-5.66l80.83-79.09
			c1.58-1.54,4.11-1.52,5.66,0.06c1.54,1.58,1.52,4.11-0.06,5.66l-80.83,79.09C150.84,280,149.83,280.38,148.82,280.38z"/>
	</g>
	<g>
		<path class="st1" d="M229.66,201.29c-0.34,0-0.68-0.04-1.02-0.13c-2.14-0.56-3.41-2.75-2.85-4.89l29.63-112.24
			c0.56-2.14,2.75-3.41,4.89-2.85c2.14,0.56,3.41,2.75,2.85,4.89l-29.63,112.25C233.05,200.1,231.43,201.29,229.66,201.29z"/>
	</g>
	<g>
		<g>
			<polygon class="st1" points="131.46,196.7 68.79,196.7 79.82,177.47 131.46,177.47 			"/>
			<path class="st1" d="M131.46,198.7H68.79c-0.71,0-1.37-0.38-1.73-1c-0.36-0.62-0.36-1.38,0-2l11.03-19.23
				c0.36-0.62,1.02-1,1.73-1h51.65c1.1,0,2,0.9,2,2v19.23C133.46,197.8,132.57,198.7,131.46,198.7z M72.24,194.7h57.22v-15.23H80.97
				L72.24,194.7z"/>
		</g>
		<g>
			<polygon class="st1" points="166.18,196.7 224.23,196.7 213.2,177.47 166.18,177.47 			"/>
			<path class="st1" d="M224.23,198.7h-58.05c-1.1,0-2-0.9-2-2v-19.23c0-1.1,0.9-2,2-2h47.02c0.72,0,1.38,0.38,1.74,1l11.03,19.23
				c0.35,0.62,0.35,1.38,0,2C225.6,198.32,224.94,198.7,224.23,198.7z M168.18,194.7h52.6l-8.74-15.23h-43.87V194.7z"/>
		</g>
		<g>
			
				<rect x="141.04" y="158.01" transform="matrix(-1.836970e-16 1 -1 -1.836970e-16 337.7377 1.4505)" class="st1" width="54.21" height="23.17"/>
			<path class="st1" d="M179.73,198.7h-23.17c-1.1,0-2-0.9-2-2v-54.21c0-1.1,0.9-2,2-2h23.17c1.1,0,2,0.9,2,2v54.21
				C181.73,197.8,180.83,198.7,179.73,198.7z M158.56,194.7h19.17v-50.21h-19.17V194.7z"/>
		</g>
		<g>
			
				<rect x="102.31" y="158.01" transform="matrix(-1.836970e-16 1 -1 -1.836970e-16 299.008 40.1802)" class="st1" width="54.21" height="23.17"/>
			<path class="st1" d="M141,198.7h-23.17c-1.1,0-2-0.9-2-2v-54.21c0-1.1,0.9-2,2-2H141c1.1,0,2,0.9,2,2v54.21
				C143,197.8,142.1,198.7,141,198.7z M119.83,194.7H139v-50.21h-19.17V194.7z"/>
		</g>
		<g>
			<polygon class="st1" points="205.72,156.54 205.72,196.7 228.85,196.7 			"/>
			<path class="st1" d="M228.85,198.7h-23.13c-1.1,0-2-0.9-2-2v-40.16c0-0.91,0.61-1.7,1.48-1.93c0.88-0.23,1.8,0.15,2.25,0.93
				l23.13,40.16c0.36,0.62,0.36,1.38,0,2S229.57,198.7,228.85,198.7z M207.72,194.7h17.67l-17.67-30.68V194.7z"/>
		</g>
		<g>
			<rect x="113.39" y="85.4" class="st1" width="70.86" height="19.23"/>
			<path class="st1" d="M184.25,106.64h-70.86c-1.1,0-2-0.9-2-2V85.4c0-1.1,0.9-2,2-2h70.86c1.1,0,2,0.9,2,2v19.23
				C186.25,105.74,185.35,106.64,184.25,106.64z M115.39,102.64h66.86V87.4h-66.86V102.64z"/>
		</g>
		<g>
			<polygon class="st1" points="182.23,115.84 159.42,115.87 169.23,132.26 128.41,132.26 149.23,96.21 165.5,87.33 149.23,57.74 
				94.89,151.39 202.73,151.47 			"/>
			<path class="st1" d="M202.73,153.47C202.73,153.47,202.73,153.47,202.73,153.47l-107.84-0.08c-0.71,0-1.38-0.38-1.73-1
				c-0.36-0.62-0.36-1.38,0-2l54.34-93.65c0.36-0.62,1.02-0.98,1.75-1c0.72,0.01,1.38,0.4,1.73,1.04l16.27,29.59
				c0.26,0.47,0.32,1.01,0.17,1.52c-0.15,0.51-0.5,0.94-0.96,1.19l-15.78,8.61l-18.81,32.56h33.84l-8-13.36
				c-0.37-0.62-0.38-1.39-0.02-2.01s1.02-1.01,1.74-1.01l22.81-0.03c0,0,0,0,0,0c0.72,0,1.38,0.38,1.73,1l20.5,35.63
				c0.36,0.62,0.36,1.38,0,2C204.1,153.09,203.44,153.47,202.73,153.47z M98.36,149.39l100.91,0.08l-18.19-31.62l-18.13,0.02
				l8,13.37c0.37,0.62,0.38,1.39,0.02,2.01c-0.36,0.63-1.02,1.01-1.74,1.01h-40.83c-0.71,0-1.38-0.38-1.73-1
				c-0.36-0.62-0.36-1.38,0-2l20.82-36.05c0.18-0.32,0.45-0.58,0.77-0.76l14.51-7.92l-13.6-24.73L98.36,149.39z"/>
		</g>
	</g>
</g>
</svg>
